<?xml version="1.0" encoding="UTF-8"?>
<svg width="512px" height="100px" viewBox="0 0 512 100" version="1.1" xmlns="http://www.w3.org/2000/svg" xmlns:xlink="http://www.w3.org/1999/xlink">
    <!-- Generator: Sketch 59.1 (86144) - https://sketch.com -->
    <title>Artboard</title>
    <desc>Created with Sketch.</desc>
    <g id="Artboard" stroke="none" stroke-width="1" fill="none" fill-rule="evenodd">
        <g id="Group" transform="translate(20.000000, 26.000000)" fill="#FFFFFF" fill-rule="nonzero">
            <g id="?" transform="translate(419.000000, 5.000000)">
                <g id="Mask">
                    <path d="M2.69351375,0 L50.8035891,0 C51.21868,0 51.6203284,0.102399112 51.9754232,0.2681541 L28.5836678,22.1451095 C27.5028891,23.1555856 26.0625584,23.1557286 24.9797987,22.1451095 L1.54382445,0.2681541 C1.89439125,0.107619179 2.28535636,0 2.69351375,0 Z" id="Path"></path>
                    <path d="M16.4674608,18.2198122 L0.349905462,34.3545303 C0.137232922,33.9222539 0,33.4322975 0,32.891862 L0,2.98520538 C0,2.85285089 0.0300918698,2.72942565 0.0440880883,2.60261593 L16.4674608,18.2198122 Z" id="Path"></path>
                    <path d="M53.4756855,2.60261593 C53.4883326,2.72246653 53.5192476,2.83835096 53.5192476,2.96317731 L53.5192476,32.9122848 C53.5192476,33.4421658 53.3952362,33.9279141 53.1899322,34.3545303 L37.0517868,18.1969098 L53.4754045,2.60261593 L53.4756855,2.60261593 Z" id="Path"></path>
                    <path d="M50.9462069,35.3953556 C50.9164253,35.3953556 50.8873527,35.3953556 50.8575711,35.3953556 L2.63969488,35.3953556 C2.61700411,35.3953556 2.59573152,35.3958531 2.57304075,35.3953556 L18.571803,19.8021292 L23.047911,23.9558448 C25.1521249,25.9040119 28.4117243,25.9067129 30.5155127,23.9558448 L35.0137442,19.7798811 L50.9462069,35.3953556 Z" id="Path"></path>
                </g>
            </g>
            <path d="M13.5,10.8 C15.7560113,10.8 17.6939919,11.3579944 19.314,12.474 C20.9340081,13.5900056 22.1699957,15.1019905 23.022,17.01 C23.8740043,18.9180095 24.3,21.0479882 24.3,23.4 C24.3,25.7520118 23.8740043,27.8819905 23.022,29.79 C22.1699957,31.6980095 20.9340081,33.2099944 19.314,34.326 C17.6939919,35.4420056 15.7560113,36 13.5,36 L4.896,36 C4.27199688,36 3.7500021,35.7900021 3.33,35.37 C2.9099979,34.9499979 2.7,34.4280031 2.7,33.804 L2.7,12.996 C2.7,12.3719969 2.9099979,11.8500021 3.33,11.43 C3.7500021,11.0099979 4.27199688,10.8 4.896,10.8 L13.5,10.8 Z M13.14,31.86 C15.3000108,31.86 16.9199946,31.062008 18,29.466 C19.0800054,27.869992 19.62,25.8480122 19.62,23.4 C19.62,20.9519878 19.0740055,18.930008 17.982,17.334 C16.8899945,15.737992 15.2760107,14.94 13.14,14.94 L7.2,14.94 L7.2,31.86 L13.14,31.86 Z M51.624,23.4 C51.624,25.7760119 51.0960053,27.9539901 50.04,29.934 C48.9839947,31.9140099 47.5260093,33.4799942 45.666,34.632 C43.8059907,35.7840058 41.7120116,36.36 39.384,36.36 C37.0559884,36.36 34.9620093,35.7840058 33.102,34.632 C31.2419907,33.4799942 29.7900052,31.9140099 28.746,29.934 C27.7019948,27.9539901 27.18,25.7760119 27.18,23.4 C27.18,21.0239881 27.7019948,18.8460099 28.746,16.866 C29.7900052,14.8859901 31.2419907,13.3200058 33.102,12.168 C34.9620093,11.0159942 37.0559884,10.44 39.384,10.44 C41.7120116,10.44 43.8059907,11.0159942 45.666,12.168 C47.5260093,13.3200058 48.9839947,14.8859901 50.04,16.866 C51.0960053,18.8460099 51.624,21.0239881 51.624,23.4 Z M46.944,23.4 C46.944,21.791992 46.6200032,20.3340065 45.972,19.026 C45.3239968,17.7179935 44.4240058,16.6800038 43.272,15.912 C42.1199942,15.1439962 40.8240072,14.76 39.384,14.76 C37.9199927,14.76 36.6180057,15.1379962 35.478,15.894 C34.3379943,16.6500038 33.4500032,17.6879934 32.814,19.008 C32.1779968,20.3280066 31.86,21.791992 31.86,23.4 C31.86,25.008008 32.1779968,26.4719934 32.814,27.792 C33.4500032,29.1120066 34.3379943,30.1499962 35.478,30.906 C36.6180057,31.6620038 37.9199927,32.04 39.384,32.04 C40.8240072,32.04 42.1199942,31.6560038 43.272,30.888 C44.4240058,30.1199962 45.3239968,29.0820065 45.972,27.774 C46.6200032,26.4659935 46.944,25.008008 46.944,23.4 Z M84.06,12.924 C84.06,13.4040024 83.9280013,13.847998 83.664,14.256 L76.14,25.02 L76.14,33.804 C76.14,34.4280031 75.936002,34.9499979 75.528,35.37 C75.119998,35.7900021 74.6280029,36 74.052,36 C73.451997,36 72.9420021,35.7900021 72.522,35.37 C72.1019979,34.9499979 71.892,34.4280031 71.892,33.804 L71.892,24.516 L64.404,14.58 C63.9719978,14.0039971 63.756,13.4400028 63.756,12.888 C63.756,12.2639969 64.0019975,11.7420021 64.494,11.322 C64.9860025,10.9019979 65.5079972,10.692 66.06,10.692 C66.7320034,10.692 67.3199975,11.0279966 67.824,11.7 L74.16,20.448 L80.1,11.772 C80.6040025,11.0519964 81.2039965,10.692 81.9,10.692 C82.4760029,10.692 82.9799978,10.9079978 83.412,11.34 C83.8440022,11.7720022 84.06,12.2999969 84.06,12.924 Z M109.548,23.4 C109.548,25.7760119 109.020005,27.9539901 107.964,29.934 C106.907995,31.9140099 105.450009,33.4799942 103.59,34.632 C101.729991,35.7840058 99.6360116,36.36 97.308,36.36 C94.9799884,36.36 92.8860093,35.7840058 91.026,34.632 C89.1659907,33.4799942 87.7140052,31.9140099 86.67,29.934 C85.6259948,27.9539901 85.104,25.7760119 85.104,23.4 C85.104,21.0239881 85.6259948,18.8460099 86.67,16.866 C87.7140052,14.8859901 89.1659907,13.3200058 91.026,12.168 C92.8860093,11.0159942 94.9799884,10.44 97.308,10.44 C99.6360116,10.44 101.729991,11.0159942 103.59,12.168 C105.450009,13.3200058 106.907995,14.8859901 107.964,16.866 C109.020005,18.8460099 109.548,21.0239881 109.548,23.4 Z M104.868,23.4 C104.868,21.791992 104.544003,20.3340065 103.896,19.026 C103.247997,17.7179935 102.348006,16.6800038 101.196,15.912 C100.043994,15.1439962 98.7480072,14.76 97.308,14.76 C95.8439927,14.76 94.5420057,15.1379962 93.402,15.894 C92.2619943,16.6500038 91.3740032,17.6879934 90.738,19.008 C90.1019968,20.3280066 89.784,21.791992 89.784,23.4 C89.784,25.008008 90.1019968,26.4719934 90.738,27.792 C91.3740032,29.1120066 92.2619943,30.1499962 93.402,30.906 C94.5420057,31.6620038 95.8439927,32.04 97.308,32.04 C98.7480072,32.04 100.043994,31.6560038 101.196,30.888 C102.348006,30.1199962 103.247997,29.0820065 103.896,27.774 C104.544003,26.4659935 104.868,25.008008 104.868,23.4 Z M131.58,10.764 C132.204003,10.764 132.707998,10.967998 133.092,11.376 C133.476002,11.784002 133.668,12.3119968 133.668,12.96 L133.668,25.992 C133.668,27.98401 133.248004,29.7479923 132.408,31.284 C131.567996,32.8200077 130.392008,34.0199957 128.88,34.884 C127.367992,35.7480043 125.64001,36.18 123.696,36.18 C121.75199,36.18 120.018008,35.7480043 118.494,34.884 C116.969992,34.0199957 115.788004,32.8200077 114.948,31.284 C114.107996,29.7479923 113.688,27.98401 113.688,25.992 L113.688,12.96 C113.688,12.3359969 113.903998,11.8140021 114.336,11.394 C114.768002,10.9739979 115.319997,10.764 115.992,10.764 C116.568003,10.764 117.071998,10.9739979 117.504,11.394 C117.936002,11.8140021 118.152,12.3359969 118.152,12.96 L118.152,25.992 C118.152,27.1440058 118.403997,28.1699955 118.908,29.07 C119.412003,29.9700045 120.089996,30.6599976 120.942,31.14 C121.794004,31.6200024 122.711995,31.86 123.696,31.86 C124.728005,31.86 125.693995,31.6200024 126.594,31.14 C127.494005,30.6599976 128.213997,29.9700045 128.754,29.07 C129.294003,28.1699955 129.564,27.1440058 129.564,25.992 L129.564,12.96 C129.564,12.3119968 129.743998,11.784002 130.104,11.376 C130.464002,10.967998 130.955997,10.764 131.58,10.764 Z M157.248,36.36 C155.519991,36.36 153.984007,36.1440022 152.64,35.712 C151.295993,35.2799978 150.036006,34.5480052 148.86,33.516 C148.211997,32.94 147.888,32.3040035 147.888,31.608 C147.888,31.0559972 148.091998,30.5700021 148.5,30.15 C148.908002,29.7299979 149.399997,29.52 149.976,29.52 C150.432002,29.52 150.839998,29.6639986 151.2,29.952 C152.160005,30.744004 153.095995,31.3199982 154.008,31.68 C154.920005,32.0400018 155.999994,32.22 157.248,32.22 C158.592007,32.22 159.749995,31.920003 160.722,31.32 C161.694005,30.719997 162.18,29.9760044 162.18,29.088 C162.18,28.0079946 161.700005,27.1620031 160.74,26.55 C159.839996,25.9762471 158.444305,25.5343369 156.552892,25.224258 L156.168,25.164 C150.911974,24.3959962 148.284,21.9480206 148.284,17.82 C148.284,16.3079924 148.679996,14.9940056 149.472,13.878 C150.264004,12.7619944 151.343993,11.9100029 152.712,11.322 C154.080007,10.7339971 155.603992,10.44 157.284,10.44 C158.796008,10.44 160.217993,10.6679977 161.55,11.124 C162.882007,11.5800023 163.991996,12.1799963 164.88,12.924 C165.576003,13.4760028 165.924,14.1119964 165.924,14.832 C165.924,15.3840028 165.720002,15.8699979 165.312,16.29 C164.903998,16.7100021 164.424003,16.92 163.872,16.92 C163.511998,16.92 163.188001,16.8120011 162.9,16.596 C162.275997,16.0919975 161.406006,15.6300021 160.29,15.21 C159.173994,14.7899979 158.172004,14.58 157.284,14.58 C155.771992,14.58 154.602004,14.8619972 153.774,15.426 C152.945996,15.9900028 152.532,16.7279954 152.532,17.64 C152.532,18.6720052 152.957996,19.4519974 153.81,19.98 C154.662004,20.5080026 155.999991,20.94 157.824,21.276 C159.88801,21.6360018 161.537994,22.0979972 162.774,22.662 C164.010006,23.2260028 164.939997,23.9939951 165.564,24.966 C166.188003,25.9380049 166.5,27.227992 166.5,28.836 C166.5,30.3480076 166.074004,31.6739943 165.222,32.814 C164.369996,33.9540057 163.236007,34.8299969 161.82,35.442 C160.403993,36.0540031 158.880008,36.36 157.248,36.36 Z M181.044,10.8 C182.268006,10.8 183.431994,11.1659963 184.536,11.898 C185.64,12.6300037 186.527997,13.6139938 187.2,14.85 C187.872003,16.0860062 188.208,17.4359927 188.208,18.9 C188.208,20.3400072 187.872003,21.6839938 187.2,22.932 C186.527997,24.1800062 185.64,25.1699963 184.536,25.902 C183.431994,26.6340037 182.268006,27 181.044,27 L174.78,27 L174.78,33.804 C174.78,34.4520032 174.588002,34.979998 174.204,35.388 C173.819998,35.796002 173.316003,36 172.692,36 C172.091997,36 171.600002,35.7900021 171.216,35.37 C170.831998,34.9499979 170.64,34.4280031 170.64,33.804 L170.64,12.996 C170.64,12.3719969 170.849998,11.8500021 171.27,11.43 C171.690002,11.0099979 172.211997,10.8 172.836,10.8 L181.044,10.8 Z M181.044,22.896 C181.500002,22.896 181.949998,22.7040019 182.394,22.32 C182.838002,21.9359981 183.197999,21.4380031 183.474,20.826 C183.750001,20.2139969 183.888,19.5720034 183.888,18.9 C183.888,18.2279966 183.750001,17.5860031 183.474,16.974 C183.197999,16.3619969 182.838002,15.8700019 182.394,15.498 C181.949998,15.1259981 181.500002,14.94 181.044,14.94 L174.78,14.94 L174.78,22.896 L181.044,22.896 Z M206.604,31.86 C207.228003,31.86 207.749998,32.0699979 208.17,32.49 C208.590002,32.9100021 208.8,33.3959972 208.8,33.948 C208.8,34.548003 208.590002,35.0399981 208.17,35.424 C207.749998,35.8080019 207.228003,36 206.604,36 L194.544,36 C193.919997,36 193.398002,35.7900021 192.978,35.37 C192.557998,34.9499979 192.348,34.4280031 192.348,33.804 L192.348,12.996 C192.348,12.3719969 192.557998,11.8500021 192.978,11.43 C193.398002,11.0099979 193.919997,10.8 194.544,10.8 L206.604,10.8 C207.228003,10.8 207.749998,10.997998 208.17,11.394 C208.590002,11.790002 208.8,12.3 208.8,12.924 C208.8,13.524003 208.596002,14.0099981 208.188,14.382 C207.779998,14.7540019 207.252003,14.94 206.604,14.94 L196.848,14.94 L196.848,21.06 L204.984,21.06 C205.608003,21.06 206.129998,21.257998 206.55,21.654 C206.970002,22.050002 207.18,22.5599969 207.18,23.184 C207.18,23.784003 206.976002,24.2699981 206.568,24.642 C206.159998,25.0140019 205.632003,25.2 204.984,25.2 L196.848,25.2 L196.848,31.86 L206.604,31.86 Z M232.704,33.192 C232.824001,33.5040016 232.884,33.7919987 232.884,34.056 C232.884,34.6800031 232.680002,35.189998 232.272,35.586 C231.863998,35.982002 231.396003,36.18 230.868,36.18 C230.435998,36.18 230.046002,36.0480013 229.698,35.784 C229.349998,35.5199987 229.080001,35.1600023 228.888,34.704 L227.016,30.348 L216.288,30.348 L214.416,34.74 C214.247999,35.1960023 213.990002,35.5499987 213.642,35.802 C213.293998,36.0540013 212.916002,36.18 212.508,36.18 C211.883997,36.18 211.410002,36.0120017 211.086,35.676 C210.761998,35.3399983 210.6,34.8840029 210.6,34.308 C210.6,34.0919989 210.636,33.8640012 210.708,33.624 L219.672,12.096 C219.864001,11.6159976 220.151998,11.2440013 220.536,10.98 C220.872002,10.7489988 221.244749,10.637437 221.654249,10.6453124 L221.832,10.656 C222.264002,10.656 222.665998,10.7819987 223.038,11.034 C223.356859,11.2500011 223.600775,11.5409374 223.769755,11.9068157 L232.704,33.192 Z M218.052,26.208 L225.252,26.208 L221.616,17.784 L218.052,26.208 Z M255.24,32.256 C255.384001,32.448001 255.504,32.6819986 255.6,32.958 C255.696,33.2340014 255.744,33.4919988 255.744,33.732 C255.744,34.3800032 255.498002,34.9199978 255.006,35.352 C254.513998,35.7840022 253.944,36 253.296,36 C252.983998,36 252.684001,35.9280007 252.396,35.784 C252.107999,35.6399993 251.868001,35.4360013 251.676,35.172 L243.864,24.876 L240.444,28.152 L240.444,33.804 C240.444,34.4520032 240.234002,34.979998 239.814,35.388 C239.393998,35.796002 238.848003,36 238.176,36 C237.527997,36 236.994002,35.7900021 236.574,35.37 C236.153998,34.9499979 235.944,34.4280031 235.944,33.804 L235.944,12.996 C235.944,12.3719969 236.159998,11.8500021 236.592,11.43 C237.024002,11.0099979 237.575997,10.8 238.248,10.8 C238.896003,10.8 239.423998,11.003998 239.832,11.412 C240.240002,11.820002 240.444,12.3479968 240.444,12.996 L240.444,22.788 L251.964,11.448 C252.516003,10.8959972 253.103997,10.62 253.728,10.62 C254.280003,10.62 254.747998,10.8479977 255.132,11.304 C255.516002,11.7600023 255.708,12.2399975 255.708,12.744 C255.708,13.2480025 255.492002,13.7159978 255.06,14.148 L247.212,21.636 L255.24,32.256 Z M283.86,31.86 C284.484003,31.86 285.005998,32.0699979 285.426,32.49 C285.846002,32.9100021 286.056,33.3959972 286.056,33.948 C286.056,34.548003 285.846002,35.0399981 285.426,35.424 C285.005998,35.8080019 284.484003,36 283.86,36 L271.8,36 C271.175997,36 270.654002,35.7900021 270.234,35.37 C269.813998,34.9499979 269.604,34.4280031 269.604,33.804 L269.604,12.996 C269.604,12.3719969 269.813998,11.8500021 270.234,11.43 C270.654002,11.0099979 271.175997,10.8 271.8,10.8 L283.86,10.8 C284.484003,10.8 285.005998,10.997998 285.426,11.394 C285.846002,11.790002 286.056,12.3 286.056,12.924 C286.056,13.524003 285.852002,14.0099981 285.444,14.382 C285.035998,14.7540019 284.508003,14.94 283.86,14.94 L274.104,14.94 L274.104,21.06 L282.24,21.06 C282.864003,21.06 283.385998,21.257998 283.806,21.654 C284.226002,22.050002 284.436,22.5599969 284.436,23.184 C284.436,23.784003 284.232002,24.2699981 283.824,24.642 C283.415998,25.0140019 282.888003,25.2 282.24,25.2 L274.104,25.2 L274.104,31.86 L283.86,31.86 Z M312.048,10.764 C312.648003,10.764 313.169998,10.9739979 313.614,11.394 C314.058002,11.8140021 314.28,12.3359969 314.28,12.96 L314.28,33.804 C314.28,34.4280031 314.076002,34.9499979 313.668,35.37 C313.259998,35.7900021 312.720003,36 312.048,36 C311.375997,36 310.830002,35.796002 310.41,35.388 C309.989998,34.979998 309.78,34.4520032 309.78,33.804 L309.78,19.296 L303.84,28.368 C303.599999,28.6560014 303.324002,28.8899991 303.012,29.07 C302.699998,29.2500009 302.376002,29.3280001 302.04,29.304 C301.727998,29.3280001 301.416002,29.2500009 301.104,29.07 C300.791998,28.8899991 300.516001,28.6560014 300.276,28.368 L294.336,18.972 L294.336,33.804 C294.336,34.4520032 294.144002,34.979998 293.76,35.388 C293.375998,35.796002 292.872003,36 292.248,36 C291.647997,36 291.156002,35.7900021 290.772,35.37 C290.387998,34.9499979 290.196,34.4280031 290.196,33.804 L290.196,12.96 C290.196,12.359997 290.417998,11.8440022 290.862,11.412 C291.306002,10.9799978 291.839997,10.764 292.464,10.764 C292.824002,10.764 293.183998,10.8539991 293.544,11.034 C293.904002,11.2140009 294.179999,11.4479986 294.372,11.736 L302.22,23.796 L310.284,11.736 C310.476001,11.4479986 310.733998,11.2140009 311.058,11.034 C311.382002,10.8539991 311.711998,10.764 312.048,10.764 Z M339.444,33.192 C339.564001,33.5040016 339.624,33.7919987 339.624,34.056 C339.624,34.6800031 339.420002,35.189998 339.012,35.586 C338.603998,35.982002 338.136003,36.18 337.608,36.18 C337.175998,36.18 336.786002,36.0480013 336.438,35.784 C336.089998,35.5199987 335.820001,35.1600023 335.628,34.704 L333.756,30.348 L323.028,30.348 L321.156,34.74 C320.987999,35.1960023 320.730002,35.5499987 320.382,35.802 C320.033998,36.0540013 319.656002,36.18 319.248,36.18 C318.623997,36.18 318.150002,36.0120017 317.826,35.676 C317.501998,35.3399983 317.34,34.8840029 317.34,34.308 C317.34,34.0919989 317.376,33.8640012 317.448,33.624 L326.412,12.096 C326.604001,11.6159976 326.891998,11.2440013 327.276,10.98 C327.612002,10.7489988 327.984749,10.637437 328.394249,10.6453124 L328.572,10.656 C329.004002,10.656 329.405998,10.7819987 329.778,11.034 C330.096859,11.2500011 330.340775,11.5409374 330.509755,11.9068157 L339.444,33.192 Z M324.792,26.208 L331.992,26.208 L328.356,17.784 L324.792,26.208 Z M347.184,33.804 C347.184,34.4280031 346.956002,34.9499979 346.5,35.37 C346.043998,35.7900021 345.516003,36 344.916,36 C344.267997,36 343.734002,35.7900021 343.314,35.37 C342.893998,34.9499979 342.684,34.4280031 342.684,33.804 L342.684,12.996 C342.684,12.3719969 342.899998,11.8500021 343.332,11.43 C343.764002,11.0099979 344.315997,10.8 344.988,10.8 C345.588003,10.8 346.103998,11.0099979 346.536,11.43 C346.968002,11.8500021 347.184,12.3719969 347.184,12.996 L347.184,33.804 Z M366.48,31.788 C367.104003,31.788 367.625998,31.985998 368.046,32.382 C368.466002,32.778002 368.676,33.2879969 368.676,33.912 C368.676,34.512003 368.466002,35.009998 368.046,35.406 C367.625998,35.802002 367.104003,36 366.48,36 L354.78,36 C354.155997,36 353.634002,35.7900021 353.214,35.37 C352.793998,34.9499979 352.584,34.4280031 352.584,33.804 L352.584,12.996 C352.584,12.3719969 352.799998,11.8500021 353.232,11.43 C353.664002,11.0099979 354.215997,10.8 354.888,10.8 C355.488003,10.8 356.003998,11.0099979 356.436,11.43 C356.868002,11.8500021 357.084,12.3719969 357.084,12.996 L357.084,31.788 L366.48,31.788 Z M385.812,24.624 C385.812,23.9999969 386.015998,23.4780021 386.424,23.058 C386.832002,22.6379979 387.347997,22.428 387.972,22.428 C389.556008,22.428 390.827995,22.0560037 391.788,21.312 C392.748005,20.5679963 393.228,19.4160078 393.228,17.856 C393.228,16.655994 392.796004,15.660004 391.932,14.868 C391.067996,14.075996 389.988006,13.68 388.692,13.68 C387.371993,13.68 386.208005,14.1239956 385.2,15.012 C384.623997,15.5400026 384.024003,15.804 383.4,15.804 C382.943998,15.804 382.536002,15.6600014 382.176,15.372 C381.551997,14.8919976 381.24,14.3280032 381.24,13.68 C381.24,13.1279972 381.467998,12.6240023 381.924,12.168 C382.788004,11.2799956 383.801994,10.5900025 384.966,10.098 C386.130006,9.60599754 387.371993,9.36 388.692,9.36 C390.324008,9.36 391.811993,9.73199628 393.156,10.476 C394.500007,11.2200037 395.567996,12.2459935 396.36,13.554 C397.152004,14.8620065 397.548,16.2959922 397.548,17.856 C397.548,20.1600115 396.888007,21.9839933 395.568,23.328 C394.247993,24.6720067 392.496011,25.5119983 390.312,25.848 C390.191999,25.8960002 390.132,25.9559996 390.132,26.028 L390.132,27.36 C390.132,27.9840031 389.928002,28.5059979 389.52,28.926 C389.111998,29.3460021 388.596003,29.556 387.972,29.556 C387.347997,29.556 386.832002,29.3460021 386.424,28.926 C386.015998,28.5059979 385.812,27.9840031 385.812,27.36 L385.812,24.624 Z M387.792,36 C387.095997,36 386.562002,35.8140019 386.19,35.442 C385.817998,35.0699981 385.632,34.5360035 385.632,33.84 L385.632,33.228 C385.632,32.5319965 385.817998,31.9980019 386.19,31.626 C386.562002,31.2539981 387.095997,31.068 387.792,31.068 L388.26,31.068 C388.956003,31.068 389.489998,31.2539981 389.862,31.626 C390.234002,31.9980019 390.42,32.5319965 390.42,33.228 L390.42,33.84 C390.42,34.5360035 390.234002,35.0699981 389.862,35.442 C389.489998,35.8140019 388.956003,36 388.26,36 L387.792,36 Z" id="DOYOUSPEAKEMAIL?"></path>
        </g>
    </g>
</svg>