<?xml version="1.0" encoding="UTF-8"?>
<svg width="256px" height="256px" viewBox="0 0 256 256" version="1.1" xmlns="http://www.w3.org/2000/svg" xmlns:xlink="http://www.w3.org/1999/xlink">
    <!-- Generator: Sketch 59.1 (86144) - https://sketch.com -->
    <title>Artboard</title>
    <desc>Created with Sketch.</desc>
    <g id="Page-1" stroke="none" stroke-width="1" fill="none" fill-rule="evenodd">
        <g id="Artboard" transform="translate(-994.000000, -291.000000)" fill="#606373" fill-rule="nonzero">
            <g id="?" transform="translate(1007.000000, 344.000000)">
                <g id="Mask" transform="translate(0.241379, 0.241379)">
                    <path d="M11.5511311,0 L217.871142,0 C219.651259,0 221.373728,0.434148283 222.896552,1.13691066 L122.581032,93.890084 C117.946113,98.1742665 111.769256,98.1748729 107.125842,93.890084 L6.62068966,1.13691066 C8.12409503,0.456280144 9.80074854,0 11.5511311,0 Z" id="Path"></path>
                    <path d="M70.6206897,77.2477417 L1.50056923,145.655172 C0.588523254,143.822422 0,141.745121 0,139.453801 L0,12.6565725 C0,12.0954205 0.129048954,11.5721263 0.189071724,11.0344828 L70.6206897,77.2477417 Z" id="Path"></path>
                    <path d="M229.330425,11.0344828 C229.384662,11.5426213 229.517241,12.0339441 229.517241,12.5631786 L229.517241,139.540389 C229.517241,141.78696 228.985418,143.846419 228.104972,145.655172 L158.896552,77.1506409 L229.32922,11.0344828 L229.330425,11.0344828 Z" id="Path"></path>
                    <path d="M218.482759,150.068028 C218.35504,150.068028 218.230363,150.068028 218.102644,150.068028 L11.3203289,150.068028 C11.2230196,150.068028 11.1317921,150.070137 11.0344828,150.068028 L79.645159,83.9563958 L98.8409438,101.567178 C107.864863,109.826951 121.843652,109.838403 130.865747,101.567178 L150.156408,83.862069 L218.482759,150.068028 Z" id="Path"></path>
                </g>
            </g>
        </g>
    </g>
</svg>