<?xml version="1.0" encoding="UTF-8"?>
<svg width="116px" height="80px" viewBox="0 0 116 80" version="1.1" xmlns="http://www.w3.org/2000/svg" xmlns:xlink="http://www.w3.org/1999/xlink">
    <!-- Generator: Sketch 59.1 (86144) - https://sketch.com -->
    <title>?</title>
    <desc>Created with Sketch.</desc>
    <g id="Page-1" stroke="none" stroke-width="1" fill="none" fill-rule="evenodd">
        <g id="Artboard" transform="translate(-118.000000, -76.000000)" fill-rule="nonzero">
            <g id="?" transform="translate(118.000000, 76.000000)">
                <path d="M11.0476189,0 C4.91826177,0 0,5.14937753 0,11.336272 L0,68.6206936 C0,74.8074501 4.91826177,80 11.0476189,80 L104.952381,80 C111.082014,80 116,74.8074501 116,68.6206936 L116,11.336272 C116,5.14937753 111.082014,0 104.952381,0 L11.0476189,0 L11.0476189,0 Z" id="Shape" fill="#3F424D"></path>
                <g id="Mask" transform="translate(6.000000, 6.000000)" fill="#606373">
                    <path d="M5.23410628,0 L98.7228614,0 C99.5294769,0 100.30997,0.196723441 101,0.515162642 L55.5445299,42.5439443 C53.4443325,44.4852145 50.6454442,44.4854893 48.5413973,42.5439443 L3,0.515162642 C3.68123056,0.20675194 4.44096418,0 5.23410628,0 Z" id="Path"></path>
                    <path d="M32,35.002883 L0.679945434,66 C0.266674599,65.1695348 0,64.2282579 0,63.1900035 L0,5.73500943 C0,5.48073739 0.0584753074,5.24361973 0.0856731247,5 L32,35.002883 Z" id="Path"></path>
                    <path d="M103.915349,5 C103.939925,5.23025026 104,5.45288093 104,5.69269032 L104,63.2292387 C104,64.2472164 103.759018,65.1804088 103.360066,66 L72,34.9588842 L103.914803,5 L103.915349,5 Z" id="Path"></path>
                    <path d="M99,67.9995752 C98.9421276,67.9995752 98.885633,67.9995752 98.8277606,67.9995752 L5.12952403,67.9995752 C5.08543075,67.9995752 5.04409329,68.000531 5,67.9995752 L36.0892127,38.0427418 L44.7873027,46.0226277 C48.8762661,49.7653372 55.2104047,49.7705263 59.2985415,46.0226277 L68.0396224,38 L99,67.9995752 Z" id="Path"></path>
                </g>
                <path d="M86.2604857,46.9055258 C86.2604857,44.7427105 86.9860119,42.9334594 88.4370861,41.4777184 C89.8881603,40.0219773 91.7233149,39.2941176 93.9426049,39.2941176 C99.5761871,39.2941176 104.100057,38.0047663 107.514349,35.426025 C110.928641,32.8472836 112.635762,28.8544537 112.635762,23.4474153 C112.635762,19.2881551 111.099353,15.8360209 108.02649,13.0909091 C104.953627,10.3457973 101.112606,8.97326203 96.5033113,8.97326203 C92.3954909,8.97326203 88.712504,10.1514848 85.4542674,12.5079613 L84.0838852,13.5900178 C82.0353098,15.4200923 79.9014092,16.3351159 77.6821192,16.3351159 C76.0603304,16.3351159 74.6092779,15.8360121 73.3289183,14.8377897 C71.1096283,13.1740856 70,11.2192626 70,8.97326203 C70,7.06000232 70.8108823,5.31313922 72.4326711,3.73262032 C75.5055341,0.654767736 79.1118262,-1.73677103 83.2516556,-3.44206774 C87.391485,-5.14736444 91.8086594,-6 96.5033113,-6 C102.307608,-6 107.599682,-4.71064866 112.379691,-2.13190731 C117.1597,0.446834046 120.958043,4.00294822 123.774834,8.53654189 C126.591626,13.0701356 128,18.040377 128,23.4474153 C128,31.433195 125.652709,37.7551758 120.958057,42.4135472 C116.263406,47.0719187 110.032416,49.9833572 102.264901,51.1479501 C101.838114,51.3143205 101.624724,51.5222804 101.624724,51.771836 L101.624724,56.3885918 C101.624724,58.5514071 100.899198,60.3606582 99.4481236,61.8163993 C97.9970494,63.2721404 96.1618948,64 93.9426049,64 C91.7233149,64 89.8881603,63.2721404 88.4370861,61.8163993 C86.9860119,60.3606582 86.2604857,58.5514071 86.2604857,56.3885918 L86.2604857,46.9055258 Z M93.6691729,86 C91.1979826,86 89.3020116,85.3588872 87.981203,84.0766423 C86.6603944,82.7943975 86,80.9537833 86,78.5547445 L86,76.4452555 C86,74.0462167 86.6603944,72.2056025 87.981203,70.9233577 C89.3020116,69.6411128 91.1979826,69 93.6691729,69 L95.3308271,69 C97.8020174,69 99.6979884,69.6411128 101.018797,70.9233577 C102.339606,72.2056025 103,74.0462167 103,76.4452555 L103,78.5547445 C103,80.9537833 102.339606,82.7943975 101.018797,84.0766423 C99.6979884,85.3588872 97.8020174,86 95.3308271,86 L93.6691729,86 Z" stroke="#8F929E" stroke-width="3"></path>
            </g>
        </g>
    </g>
</svg>